<svg width="20" height="20" viewBox="0 0 20 20" fill="none" xmlns="http://www.w3.org/2000/svg">
    <path d="M10 0C4.48867 0 0 4.48867 0 10C0 15.5113 4.48867 20 10 20H14C14.1325 20.0019 14.2641 19.9774 14.387 19.928C14.51 19.8786 14.6219 19.8052 14.7163 19.7122C14.8107 19.6191 14.8856 19.5082 14.9368 19.386C14.9879 19.2637 15.0142 19.1325 15.0142 19C15.0142 18.8675 14.9879 18.7363 14.9368 18.614C14.8856 18.4918 14.8107 18.3809 14.7163 18.2878C14.6219 18.1948 14.51 18.1214 14.387 18.072C14.2641 18.0226 14.1325 17.9981 14 18H10C5.56933 18 2 14.4307 2 10C2 5.56933 5.56933 2 10 2C14.4307 2 18 5.56933 18 10V11.5C18 12.3408 17.3408 13 16.5 13C15.6592 13 15 12.3408 15 11.5V10C15.0001 9.96281 14.9982 9.92564 14.9941 9.88867C14.9339 7.19039 12.712 5 10 5C7.25042 5 5 7.25042 5 10C5 12.7496 7.25042 15 10 15C11.4136 15 12.6879 14.3989 13.5996 13.4473C14.2307 14.3809 15.2977 15 16.5 15C18.4212 15 20 13.4212 20 11.5V10C20 4.48867 15.5113 0 10 0ZM10 7C11.6687 7 13 8.3313 13 10C13 11.6687 11.6687 13 10 13C8.3313 13 7 11.6687 7 10C7 8.3313 8.3313 7 10 7Z" fill="white"/>
</svg>