<svg width="20" height="22" viewBox="0 0 20 22" fill="none" xmlns="http://www.w3.org/2000/svg">
    <path d="M2 0C0.895 0 0 0.895 0 2V18C0 19.105 0.895 20 2 20H12.4277C12.1437 19.337 12 18.641 12 18H8C7.448 18 7 17.552 7 17C7 16.448 7.448 16 8 16H12H12.4297C12.1657 15.446 12 14.786 12 14C11.448 14 11 13.552 11 13C11 12.448 11.448 12 12 12C12.09 12 12.1709 12.0288 12.2539 12.0508C12.5049 11.4098 12.999 10.5805 14 9.97852C14 8.88652 14.8865 8 15.9785 8H16V2C16 0.895 15.105 0 14 0H2ZM2.5 2H13.5C13.776 2 14 2.224 14 2.5V5.5C14 5.776 13.776 6 13.5 6H2.5C2.224 6 2 5.776 2 5.5V2.5C2 2.224 2.224 2 2.5 2ZM4 8C4.552 8 5 8.448 5 9C5 9.552 4.552 10 4 10C3.448 10 3 9.552 3 9C3 8.448 3.448 8 4 8ZM8 8C8.552 8 9 8.448 9 9C9 9.552 8.552 10 8 10C7.448 10 7 9.552 7 9C7 8.448 7.448 8 8 8ZM12 8C12.552 8 13 8.448 13 9C13 9.552 12.552 10 12 10C11.448 10 11 9.552 11 9C11 8.448 11.448 8 12 8ZM17 10C16.448 10 16 10.448 16 11V11.1992C15 11.4992 14 12.4 14 14C14 15.9 15.5996 16.5004 16.5996 16.9004C17.7996 17.4004 18 17.5 18 18C18 18.5 17.8 19 17 19C16.2 19 16 18.5 16 18H14C14 19 14.6 20.4008 16 20.8008V21C16 21.552 16.448 22 17 22C17.552 22 18 21.552 18 21V20.8008C19.4 20.4008 20 19 20 18C20 16.1 18.4004 15.4996 17.4004 15.0996C16.2004 14.5996 16 14.5 16 14C16 13.2 16.5 13 17 13C17.8 13 18 13.5 18 14H19H20C20 13 19.4 11.5992 18 11.1992V11C18 10.448 17.552 10 17 10ZM4 12C4.552 12 5 12.448 5 13C5 13.552 4.552 14 4 14C3.448 14 3 13.552 3 13C3 12.448 3.448 12 4 12ZM8 12C8.552 12 9 12.448 9 13C9 13.552 8.552 14 8 14C7.448 14 7 13.552 7 13C7 12.448 7.448 12 8 12ZM4 16C4.552 16 5 16.448 5 17C5 17.552 4.552 18 4 18C3.448 18 3 17.552 3 17C3 16.448 3.448 16 4 16Z" fill="#FF9900"/>
</svg>