<svg width="24" height="24" viewBox="0 0 24 24" fill="none" xmlns="http://www.w3.org/2000/svg">
    <path d="M13.7088 1C13.3188 1 13.0037 1.31608 13.0037 1.70508V9.87891C13.0037 10.5079 13.7629 10.822 14.2069 10.377L19.9862 4.59766C20.2622 4.32266 20.2622 3.87461 19.9862 3.59961L19.9842 3.59766C18.3192 1.93466 16.0628 1 13.7088 1ZM11.0037 2.05078C8.76074 2.27278 6.73943 3.23931 5.18343 4.69531C2.87643 6.84831 1.58393 10.0733 2.12093 13.5723C2.78993 17.9283 6.38851 21.3968 10.7635 21.9258C15.7025 22.5218 20.0392 19.4895 21.4842 15.1465C21.5042 15.0865 21.5307 15.0317 21.5487 14.9727C21.6047 14.7927 21.6452 14.6049 21.6912 14.4199C21.7252 14.2839 21.7677 14.1517 21.7967 14.0137C21.8367 13.8197 21.8586 13.6208 21.8866 13.4238C21.9056 13.2898 21.9331 13.1575 21.9471 13.0215C21.9811 12.6855 21.9998 12.345 21.9998 12C21.9998 10.114 21.4674 8.35656 20.5604 6.85156L20.5428 6.86914L19.0955 8.31836L14.2908 13.1211C13.9678 13.4441 13.9678 13.968 14.2908 14.291L16.9217 16.9219C17.3327 17.3329 17.2978 18.0191 16.8358 18.3711C15.4908 19.3921 13.8148 20 11.9998 20C7.96083 20 4.61005 16.9907 4.07405 13.0957C3.99405 12.5177 4.45294 12 5.03694 12H10.1776C10.6336 12 11.0037 11.6298 11.0037 11.1738V4.06836V2.05078Z" fill="#FF9900"/>
</svg>