<svg width="21" height="23" viewBox="0 0 21 23" fill="none" xmlns="http://www.w3.org/2000/svg">
    <path d="M4 0C3.448 0 3 0.448 3 1V2H2C0.9 2 0 2.9 0 4V18C0 19.1 0.9 20 2 20H9.99805C10.263 20 10.5181 19.895 10.7051 19.707C11.3351 19.077 10.889 18 9.99805 18H2V7H16V11.998C16 12.889 17.077 13.3351 17.707 12.7051C17.895 12.5181 18 12.263 18 11.998V4C18 2.9 17.1 2 16 2H15V1C15 0.448 14.552 0 14 0C13.448 0 13 0.448 13 1V2H5V1C5 0.448 4.552 0 4 0ZM19.5859 14C19.2239 14 18.8619 14.1381 18.5859 14.4141L17.8535 15.1465L19.8535 17.1465L20.5859 16.4141C21.1379 15.8621 21.1379 14.9661 20.5859 14.4141C20.3099 14.1381 19.9479 14 19.5859 14ZM17.1465 15.8535L12.1465 20.8535C12.0535 20.9475 12 21.074 12 21.207V22.5C12 22.776 12.224 23 12.5 23H13.793C13.925 23 14.0525 22.9465 14.1465 22.8535L19.1465 17.8535L17.1465 15.8535Z" fill="#B5B5B5"/>
</svg>