<svg width="20" height="18" viewBox="0 0 20 18" fill="none" xmlns="http://www.w3.org/2000/svg">
    <path d="M7 0C5.895 0 5 0.895 5 2V3H2C0.895 3 0 3.895 0 5V16C0 17.105 0.895 18 2 18H18C19.105 18 20 17.105 20 16V5C20 3.895 19.105 3 18 3H15V2C15 0.895 14.105 0 13 0H7ZM10 5C12.757 5 15 7.243 15 10C15 12.757 12.757 15 10 15C7.243 15 5 12.757 5 10C5 7.243 7.243 5 10 5ZM17 5C17.552 5 18 5.448 18 6C18 6.552 17.552 7 17 7C16.448 7 16 6.552 16 6C16 5.448 16.448 5 17 5ZM10 7C9.20435 7 8.44129 7.31607 7.87868 7.87868C7.31607 8.44129 7 9.20435 7 10C7 10.7956 7.31607 11.5587 7.87868 12.1213C8.44129 12.6839 9.20435 13 10 13C10.7956 13 11.5587 12.6839 12.1213 12.1213C12.6839 11.5587 13 10.7956 13 10C13 9.20435 12.6839 8.44129 12.1213 7.87868C11.5587 7.31607 10.7956 7 10 7Z" fill="white"/>
</svg>