<svg width="22" height="22" viewBox="0 0 22 22" fill="none" xmlns="http://www.w3.org/2000/svg">
    <path d="M11.4998 0C11.3978 1.24632e-05 11.2981 0.0312736 11.2143 0.0895822C11.1305 0.147891 11.0666 0.230453 11.0311 0.326172L5.15414 11.4688C5.05377 11.6278 5.00029 11.8119 4.99984 12C4.99984 12.2652 5.1052 12.5196 5.29273 12.7071C5.48027 12.8946 5.73462 13 5.99984 13H10.9998V21.5C10.9998 21.6326 11.0525 21.7598 11.1463 21.8536C11.2401 21.9473 11.3672 22 11.4998 22C11.5919 22.0001 11.6821 21.9748 11.7607 21.9269C11.8393 21.879 11.9031 21.8104 11.9452 21.7285L17.8651 10.502L17.8631 10.5C17.9518 10.3482 17.999 10.1758 17.9998 10C17.9998 9.73478 17.8945 9.48043 17.7069 9.29289C17.5194 9.10536 17.2651 9 16.9998 9H11.9998V0.5C11.9998 0.367392 11.9472 0.240215 11.8534 0.146447C11.7596 0.0526784 11.6324 0 11.4998 0V0ZM1.99007 1.99023C1.79114 1.99029 1.59674 2.04967 1.43173 2.16078C1.26672 2.27189 1.1386 2.42969 1.06374 2.614C0.988886 2.79832 0.970697 3.00077 1.0115 3.19547C1.05231 3.39017 1.15025 3.56828 1.29281 3.70703L3.29281 5.70703C3.38495 5.803 3.49532 5.87963 3.61745 5.93241C3.73958 5.98519 3.87101 6.01308 4.00405 6.01443C4.13709 6.01579 4.26907 5.99058 4.39224 5.94029C4.51542 5.89 4.62732 5.81564 4.7214 5.72156C4.81548 5.62748 4.88984 5.51558 4.94013 5.3924C4.99042 5.26923 5.01563 5.13725 5.01427 5.00421C5.01292 4.87117 4.98503 4.73974 4.93225 4.61761C4.87947 4.49548 4.80284 4.38511 4.70687 4.29297L2.70687 2.29297C2.61368 2.19717 2.50224 2.12103 2.37912 2.06903C2.25601 2.01704 2.12372 1.99024 1.99007 1.99023V1.99023ZM19.9803 1.99023C19.7205 1.99798 19.4739 2.10655 19.2928 2.29297L17.2928 4.29297C17.1968 4.38511 17.1202 4.49548 17.0674 4.61761C17.0146 4.73974 16.9868 4.87117 16.9854 5.00421C16.984 5.13725 17.0093 5.26923 17.0595 5.39241C17.1098 5.51558 17.1842 5.62749 17.2783 5.72157C17.3724 5.81564 17.4843 5.89001 17.6074 5.9403C17.7306 5.99058 17.8626 6.01579 17.9956 6.01444C18.1287 6.01308 18.2601 5.9852 18.3822 5.93241C18.5044 5.87963 18.6147 5.803 18.7069 5.70703L20.7069 3.70703C20.8514 3.56657 20.9501 3.38573 20.99 3.18821C21.03 2.99069 21.0093 2.7857 20.9308 2.60012C20.8523 2.41453 20.7195 2.257 20.5499 2.14817C20.3803 2.03935 20.1817 1.98429 19.9803 1.99023V1.99023ZM3.98031 15.9902C3.72051 15.998 3.47393 16.1066 3.29281 16.293L1.29281 18.293C1.19684 18.3851 1.12021 18.4955 1.06743 18.6176C1.01464 18.7397 0.986757 18.8712 0.985403 19.0042C0.98405 19.1373 1.00926 19.2692 1.05954 19.3924C1.10983 19.5156 1.1842 19.6275 1.27827 19.7216C1.37235 19.8156 1.48426 19.89 1.60743 19.9403C1.73061 19.9906 1.86259 20.0158 1.99563 20.0144C2.12867 20.0131 2.2601 19.9852 2.38223 19.9324C2.50436 19.8796 2.61473 19.803 2.70687 19.707L4.70687 17.707C4.85137 17.5666 4.95007 17.3857 4.99003 17.1882C5.02999 16.9907 5.00935 16.7857 4.93081 16.6001C4.85226 16.4145 4.71949 16.257 4.54988 16.1482C4.38027 16.0393 4.18174 15.9843 3.98031 15.9902V15.9902ZM17.9901 15.9902C17.7911 15.9903 17.5967 16.0497 17.4317 16.1608C17.2667 16.2719 17.1386 16.4297 17.0637 16.614C16.9889 16.7983 16.9707 17.0008 17.0115 17.1955C17.0523 17.3902 17.1502 17.5683 17.2928 17.707L19.2928 19.707C19.385 19.803 19.4953 19.8796 19.6175 19.9324C19.7396 19.9852 19.871 20.0131 20.0041 20.0144C20.1371 20.0158 20.2691 19.9906 20.3922 19.9403C20.5154 19.89 20.6273 19.8157 20.7214 19.7216C20.8155 19.6275 20.8899 19.5156 20.9401 19.3924C20.9904 19.2692 21.0156 19.1373 21.0143 19.0042C21.0129 18.8712 20.985 18.7397 20.9323 18.6176C20.8795 18.4955 20.8028 18.3851 20.7069 18.293L18.7069 16.293C18.6137 16.1972 18.5022 16.121 18.3791 16.069C18.256 16.017 18.1237 15.9902 17.9901 15.9902V15.9902Z" fill="#FF9900"/>
</svg>