<svg width="34" height="28" viewBox="0 0 34 28" fill="none" xmlns="http://www.w3.org/2000/svg">
    <path d="M3.66634 0.666687C2.55634 0.666687 1.57762 1.21182 0.974284 2.05015C0.567617 2.61348 0.747279 3.412 1.33561 3.77867L15.971 12.8998C16.601 13.2931 17.3983 13.2931 18.0283 12.8998L32.6019 3.70054C33.2136 3.31387 33.3661 2.47351 32.9144 1.91018C32.3061 1.15351 31.378 0.666687 30.333 0.666687H3.66634ZM32.8591 7.47658C32.7197 7.47812 32.5781 7.51653 32.4456 7.60028L18.0283 16.6921C17.3983 17.0837 16.601 17.0822 15.971 16.6888L1.55046 7.70445C1.02046 7.37445 0.333008 7.75653 0.333008 8.38153V24C0.333008 25.8417 1.82467 27.3334 3.66634 27.3334H30.333C32.1747 27.3334 33.6663 25.8417 33.6663 24V8.27411C33.6663 7.80411 33.2772 7.47197 32.8591 7.47658Z" fill="#1F6CFF"/>
</svg>