<svg width="16" height="18" viewBox="0 0 16 18" fill="none" xmlns="http://www.w3.org/2000/svg">
    <path d="M14.5705 0C14.8304 3.23106e-05 15.0813 0.0899562 15.2755 0.252715C15.4697 0.415475 15.5938 0.639749 15.6242 0.883L15.6317 1V17C15.6314 17.2549 15.5278 17.5 15.3421 17.6854C15.1565 17.8707 14.9027 17.9822 14.6327 17.9972C14.3627 18.0121 14.0968 17.9293 13.8894 17.7657C13.682 17.6021 13.5487 17.3701 13.5168 17.117L13.5093 17V12H12.4482C12.1883 12 11.9374 11.91 11.7432 11.7473C11.5489 11.5845 11.4248 11.3603 11.3944 11.117L11.387 11V5C11.387 2.79 12.9788 0 14.5705 0ZM8.20352 0C8.46344 3.23106e-05 8.7143 0.0899562 8.90853 0.252715C9.10276 0.415475 9.22685 0.639749 9.25726 0.883L9.26469 1V6C9.26456 6.88687 8.95183 7.74858 8.37561 8.44978C7.7994 9.15098 6.99234 9.65195 6.0812 9.874V17C6.0809 17.2549 5.97734 17.5 5.79166 17.6854C5.60599 17.8707 5.35223 17.9822 5.08223 17.9972C4.81222 18.0121 4.54636 17.9293 4.33895 17.7657C4.13154 17.6021 3.99825 17.3701 3.9663 17.117L3.95888 17V9.874C3.0839 9.66084 2.3039 9.19019 1.73231 8.53051C1.16072 7.87083 0.827356 7.05652 0.780697 6.206L0.775391 6V1C0.775691 0.74512 0.879256 0.499968 1.06493 0.314632C1.2506 0.129296 1.50436 0.017765 1.77436 0.00282788C2.04437 -0.0121092 2.31023 0.0706746 2.51764 0.234265C2.72505 0.397855 2.85834 0.629904 2.89029 0.883L2.89771 1V6C2.89772 6.35106 2.99579 6.69594 3.18207 6.99997C3.36834 7.304 3.63625 7.55647 3.95888 7.732V1C3.95918 0.74512 4.06274 0.499968 4.24841 0.314632C4.43408 0.129296 4.68785 0.017765 4.95785 0.00282788C5.22785 -0.0121092 5.49372 0.0706746 5.70113 0.234265C5.90853 0.397855 6.04183 0.629904 6.07377 0.883L6.0812 1L6.08226 7.732C6.37839 7.57069 6.62876 7.34433 6.81205 7.07218C6.99534 6.80004 7.10611 6.49018 7.13493 6.169L7.14236 6V1C7.14236 0.734784 7.25416 0.48043 7.45317 0.292893C7.65218 0.105357 7.92209 0 8.20352 0V0Z" fill="#FF9900"/>
</svg>