<svg width="20" height="18" viewBox="0 0 20 18" fill="none" xmlns="http://www.w3.org/2000/svg">
    <path d="M19.143 7.552L19.97 4.243C20.016 4.058 20.009 3.865 19.949 3.684C19.214 1.48 17.16 0 14.838 0H5.162C2.84 0 0.786 1.48 0.0510001 3.684C-0.00899988 3.864 -0.016 4.058 0.03 4.243L0.948 7.914C0.284 8.542 0 9.369 0 10V11V17C0 17.55 0.45 18 1 18H19C19.55 18 20 17.55 20 17V11V10C20 9.073 19.672 8.23 19.143 7.552ZM5.162 2H14.838C16.206 2 17.426 2.817 17.954 4.06L17.402 6.267C16.965 6.102 16.496 6 16 6C15.88 6 15.77 6 15.65 6.01C14.94 5.38 14 5 13 5C12.79 5 12.58 5.02 12.38 5.05C11.58 4.39 10.57 4 9.5 4C8.43 4 7.42 4.39 6.62 5.05C6.42 5.02 6.21 5 6 5C4.642 5 3.439 5.689 2.713 6.727L2.046 4.06C2.574 2.817 3.794 2 5.162 2ZM3.5 9C3.68 9 4 9 4 9C4 7.9 4.9 7 6 7C6.47 7 6.9 7.17 7.24 7.44C7.64 6.59 8.5 6 9.5 6C10.5 6 11.36 6.59 11.76 7.44C12.1 7.17 12.53 7 13 7C13.87 7 14.61 7.56 14.88 8.34C15.2 8.13 15.59 8 16 8C17.1 8 18 8.9 18 10H2C2 10 2 9 3.5 9ZM11 15C11 15.55 10.55 16 10 16C9.45 16 9 15.55 9 15V13C9 12.45 9.45 12 10 12C10.55 12 11 12.45 11 13V15Z" fill="#FF9900"/>
</svg>