<svg width="18" height="22" viewBox="0 0 18 22" fill="none" xmlns="http://www.w3.org/2000/svg">
    <path d="M2 0C0.895 0 0 0.895 0 2V20C0 21.105 0.895 22 2 22H12C13.105 22 14 21.105 14 20V18C14 17.448 13.552 17 13 17C12.448 17 12 17.448 12 18H2V4H12C12 4.552 12.448 5 13 5C13.552 5 14 4.552 14 4V2C14 0.895 13.105 0 12 0H2ZM15.6738 5.8125C15.3953 5.79513 15.1085 5.89097 14.8945 6.10547C14.5455 6.45447 14.5057 7.00539 14.8027 7.40039C15.5997 8.46239 15.998 9.732 15.998 11C15.998 12.268 15.5997 13.5376 14.8027 14.5996C14.5067 14.9946 14.5455 15.5455 14.8945 15.8945C15.3225 16.3225 16.0403 16.2819 16.4043 15.7969C18.5273 12.9659 18.5273 9.03413 16.4043 6.20312C16.2223 5.96112 15.9523 5.82987 15.6738 5.8125ZM12.6309 8.70508C12.4027 8.72567 12.1782 8.8218 12.002 8.99805C11.715 9.28505 11.5992 9.73175 11.7832 10.0938C11.9252 10.3717 12 10.679 12 11C12 11.321 11.9242 11.6283 11.7832 11.9062C11.5982 12.2682 11.714 12.715 12.002 13.002C12.472 13.472 13.2899 13.3743 13.5859 12.7793C13.8569 12.2333 14 11.628 14 11C14 10.372 13.8569 9.7677 13.5859 9.2207C13.4003 8.84883 13.0111 8.67075 12.6309 8.70508Z" fill="#FF9900"/>
</svg>