<svg width="28" height="36" viewBox="0 0 28 36" fill="none" xmlns="http://www.w3.org/2000/svg">
    <path d="M14.0003 0.666687C8.46064 0.666687 4.00033 5.127 4.00033 10.6667V12.3334C2.16699 12.3334 0.666992 13.8334 0.666992 15.6667V32.3334C0.666992 34.1667 2.16699 35.6667 4.00033 35.6667H24.0003C25.8337 35.6667 27.3337 34.1667 27.3337 32.3334V15.6667C27.3337 13.8334 25.8337 12.3334 24.0003 12.3334V10.6667C24.0003 5.127 19.54 0.666687 14.0003 0.666687ZM14.0003 4.00002C17.794 4.00002 20.667 6.87304 20.667 10.6667V12.3334H7.33366V10.6667C7.33366 6.87304 10.2067 4.00002 14.0003 4.00002ZM14.0003 20.6667C15.8337 20.6667 17.3337 22.1667 17.3337 24C17.3337 25.8334 15.8337 27.3334 14.0003 27.3334C12.167 27.3334 10.667 25.8334 10.667 24C10.667 22.1667 12.167 20.6667 14.0003 20.6667Z" fill="white"/>
</svg>