<svg width="20" height="16" viewBox="0 0 20 16" fill="none" xmlns="http://www.w3.org/2000/svg">
    <path d="M2 0C1.334 0 0.746766 0.327078 0.384766 0.830078C0.140766 1.16808 0.248563 1.64719 0.601562 1.86719L9.38281 7.33984C9.76081 7.57584 10.2392 7.57584 10.6172 7.33984L19.3613 1.82031C19.7283 1.58831 19.8198 1.08409 19.5488 0.746094C19.1838 0.292094 18.627 0 18 0H2ZM19.5156 4.08594C19.432 4.08686 19.3471 4.10991 19.2676 4.16016L10.6172 9.61523C10.2392 9.85023 9.76081 9.84928 9.38281 9.61328L0.730469 4.22266C0.412469 4.02466 0 4.25391 0 4.62891V14C0 15.105 0.895 16 2 16H18C19.105 16 20 15.105 20 14V4.56445C20 4.28245 19.7665 4.08317 19.5156 4.08594Z" fill="#D7D7D7"/>
</svg>