<svg width="18" height="18" viewBox="0 0 18 18" fill="none" xmlns="http://www.w3.org/2000/svg">
    <path d="M2 0C0.897 0 0 0.897 0 2V4C0 5.103 0.897 6 2 6H4C5.103 6 6 5.103 6 4V2C6 0.897 5.103 0 4 0H2ZM14 0C12.897 0 12 0.897 12 2V4C12 5.103 12.897 6 14 6H16C17.103 6 18 5.103 18 4V2C18 0.897 17.103 0 16 0H14ZM9 2C8.448 2 8 2.448 8 3C8 3.552 8.448 4 9 4C9.552 4 10 3.552 10 3C10 2.448 9.552 2 9 2ZM3 8C2.448 8 2 8.448 2 9C2 9.552 2.448 10 3 10C3.552 10 4 9.552 4 9C4 8.448 3.552 8 3 8ZM15 8C14.448 8 14 8.448 14 9C14 9.552 14.448 10 15 10C15.552 10 16 9.552 16 9C16 8.448 15.552 8 15 8ZM2 12C0.897 12 0 12.897 0 14V16C0 17.103 0.897 18 2 18H4C5.103 18 6 17.103 6 16V14C6 12.897 5.103 12 4 12H2ZM14 12C12.897 12 12 12.897 12 14V16C12 17.103 12.897 18 14 18H16C17.103 18 18 17.103 18 16V14C18 12.897 17.103 12 16 12H14ZM9 14C8.448 14 8 14.448 8 15C8 15.552 8.448 16 9 16C9.552 16 10 15.552 10 15C10 14.448 9.552 14 9 14Z" fill="white"/>
</svg>