<svg width="22" height="20" viewBox="0 0 22 20" fill="none" xmlns="http://www.w3.org/2000/svg">
    <path d="M8.15233 0.00205119C7.759 -0.0228394 7.36956 0.179926 7.17381 0.548926L5.89061 2.96885L3.19334 3.4415C2.64434 3.5375 2.27159 4.05161 2.34959 4.60361L2.73241 7.31455L0.828109 9.28135C0.440109 9.68235 0.440109 10.3178 0.828109 10.7188L2.73241 12.6876L2.34959 15.3985C2.27159 15.9505 2.64434 16.4636 3.19334 16.5606L5.89061 17.0333L7.17381 19.4513C7.43481 19.9433 8.04 20.1416 8.541 19.8966L11 18.6935L13.4609 19.8946C13.9619 20.1396 14.5642 19.9433 14.8262 19.4513L16.1094 17.0333L18.8066 16.5606C19.3556 16.4646 19.7303 15.9486 19.6523 15.3966L19.2695 12.6856L21.1738 10.7188C21.5588 10.3188 21.5589 9.68235 21.1719 9.28135L19.2676 7.3126L19.6504 4.60166C19.7284 4.04966 19.3537 3.53655 18.8047 3.43955L16.1074 2.96689L14.8242 0.548926C14.5642 0.0579262 13.9609 -0.139433 13.4609 0.105567L11 1.30674L8.53905 0.105567C8.41405 0.0443168 8.28344 0.0103481 8.15233 0.00205119ZM7.99998 5.0001C9.10498 5.0001 9.99998 5.8951 9.99998 7.0001C9.99998 8.1051 9.10498 9.0001 7.99998 9.0001C6.89498 9.0001 5.99998 8.1051 5.99998 7.0001C5.99998 5.8951 6.89498 5.0001 7.99998 5.0001ZM13.4433 5.85752C13.6333 5.83027 13.8345 5.8761 14 6.0001C14.331 6.2491 14.3984 6.71793 14.1504 7.04893L9.05077 13.8497C8.80177 14.1817 8.33098 14.2481 7.99998 14.0001C7.66898 13.7511 7.60159 13.2823 7.84959 12.9513L12.9492 6.15049C13.0737 5.98449 13.2533 5.88477 13.4433 5.85752ZM7.99998 6.0001C7.73477 6.0001 7.48041 6.10546 7.29288 6.29299C7.10534 6.48053 6.99998 6.73488 6.99998 7.0001C6.99998 7.26531 7.10534 7.51967 7.29288 7.7072C7.48041 7.89474 7.73477 8.0001 7.99998 8.0001C8.2652 8.0001 8.51956 7.89474 8.70709 7.7072C8.89463 7.51967 8.99998 7.26531 8.99998 7.0001C8.99998 6.73488 8.89463 6.48053 8.70709 6.29299C8.51956 6.10546 8.2652 6.0001 7.99998 6.0001ZM14 11.0001C15.105 11.0001 16 11.8951 16 13.0001C16 14.1051 15.105 15.0001 14 15.0001C12.895 15.0001 12 14.1051 12 13.0001C12 11.8951 12.895 11.0001 14 11.0001ZM14 12.0001C13.7348 12.0001 13.4804 12.1055 13.2929 12.293C13.1053 12.4805 13 12.7349 13 13.0001C13 13.2653 13.1053 13.5197 13.2929 13.7072C13.4804 13.8947 13.7348 14.0001 14 14.0001C14.2652 14.0001 14.5196 13.8947 14.7071 13.7072C14.8946 13.5197 15 13.2653 15 13.0001C15 12.7349 14.8946 12.4805 14.7071 12.293C14.5196 12.1055 14.2652 12.0001 14 12.0001Z" fill="white"/>
</svg>