<svg width="20" height="18" viewBox="0 0 20 18" fill="none" xmlns="http://www.w3.org/2000/svg">
    <path d="M15.9065 0.00395013C15.8091 0.0131689 15.7112 0.0377158 15.6175 0.0762158C15.2435 0.231216 15.0003 0.595044 15.0003 1.00004V3.00004H0.000281319V5.00004H15.0003V7.00004C15.0003 7.40404 15.2435 7.76887 15.6175 7.92387C15.7415 7.97487 15.8713 8.00004 16.0003 8.00004C16.2603 8.00004 16.5163 7.89808 16.7073 7.70708L19.7073 4.70708C20.0983 4.31608 20.0983 3.68301 19.7073 3.29301L16.7073 0.293013C16.4928 0.0785125 16.1988 -0.0237061 15.9065 0.00395013ZM4.09403 10.004C3.80177 9.97629 3.50775 10.0785 3.29325 10.293L0.29325 13.293C-0.09775 13.683 -0.09775 14.3161 0.29325 14.7071L3.29325 17.7071C3.48425 17.8981 3.74028 18 4.00028 18C4.12928 18 4.25909 17.9749 4.38309 17.9239C4.75709 17.7689 5.00028 17.404 5.00028 17V15H20.0003V13H5.00028V11C5.00028 10.596 4.75709 10.2312 4.38309 10.0762C4.28934 10.0377 4.19145 10.0132 4.09403 10.004Z" fill="#FF9900"/>
</svg>