<svg width="20" height="20" viewBox="0 0 20 20" fill="none" xmlns="http://www.w3.org/2000/svg">
    <path d="M10 0C4.477 0 0 4.477 0 10C0 15.523 4.477 20 10 20C15.523 20 20 15.523 20 10C20 4.477 15.523 0 10 0ZM9.293 14.707L6 11.414C5.61 11.023 5.61 10.39 6 10C6.39 9.61 7.024 9.61 7.414 10L9 11.586V6C9 5.448 9.448 5 10 5C10.552 5 11 5.448 11 6V11.586L12.586 10C12.976 9.61 13.61 9.61 14 10C14.39 10.39 14.39 11.024 14 11.414L10.707 14.707C10.317 15.097 9.683 15.097 9.293 14.707Z" fill="white"/>
</svg>