<svg width="19" height="18" viewBox="0 0 19 18" fill="none" xmlns="http://www.w3.org/2000/svg">
    <path d="M16.7637 0C16.2957 0 15.8682 0.265594 15.6582 0.683594L15 2L8.60547 4.74023C8.23747 4.89823 8 5.2582 8 5.6582V12.3398C8 12.7398 8.23747 13.1028 8.60547 13.2598L15 16L15.6582 17.3164C15.8682 17.7344 16.2957 18 16.7637 18C17.4467 18 18 17.4467 18 16.7637V10.7285C18.3035 10.5533 18.5557 10.3014 18.7312 9.998C18.9067 9.69463 18.9994 9.35047 19 9C18.9997 8.64919 18.9072 8.30463 18.7317 8.0009C18.5561 7.69716 18.3038 7.44493 18 7.26953V1.23633C18 0.553328 17.4467 0 16.7637 0ZM2 5C0.9 5 0 5.9 0 7V11C0 12.1 0.9 13 2 13H4V17C4 17.552 4.448 18 5 18C5.552 18 6 17.552 6 17V11V6C6 5.448 5.552 5 5 5H2Z" fill="white"/>
</svg>