<svg width="40" height="40" viewBox="0 0 40 40" fill="none" xmlns="http://www.w3.org/2000/svg">
    <path d="M19.9997 3.3335C10.7947 3.3335 3.33301 10.7952 3.33301 20.0002C3.33301 29.2052 10.7947 36.6668 19.9997 36.6668C29.2047 36.6668 36.6664 29.2052 36.6664 20.0002C36.6664 10.7952 29.2047 3.3335 19.9997 3.3335ZM20.833 28.3335H19.1663C18.7063 28.3335 18.333 27.9602 18.333 27.5002V25.8335C18.333 25.3735 18.7063 25.0002 19.1663 25.0002H20.833C21.293 25.0002 21.6663 25.3735 21.6663 25.8335V27.5002C21.6663 27.9602 21.293 28.3335 20.833 28.3335ZM19.9997 21.6668C19.0797 21.6668 18.333 20.9202 18.333 20.0002V13.3335C18.333 12.4135 19.0797 11.6668 19.9997 11.6668C20.9197 11.6668 21.6663 12.4135 21.6663 13.3335V20.0002C21.6663 20.9202 20.9197 21.6668 19.9997 21.6668Z" fill="#B5B5B5"/>
</svg>