<svg width="20" height="20" viewBox="0 0 20 20" fill="none" xmlns="http://www.w3.org/2000/svg">
    <path d="M17.0762 2.92792C14.9942 0.844918 12.1542 -0.206082 9.17216 0.0339175C5.16316 0.355918 1.64916 3.14392 0.473162 6.98992C-0.366838 9.73792 -0.0138381 12.6069 1.35416 14.9769L0.058162 19.2799C-0.065838 19.6929 0.311162 20.0819 0.728162 19.9709L5.23216 18.7639C6.69116 19.5599 8.33316 19.9789 10.0052 19.9799H10.0092C14.2042 19.9799 18.0802 17.4139 19.4212 13.4389C20.7272 9.56292 19.7612 5.61592 17.0762 2.92792ZM14.8972 13.5539C14.6892 14.1369 13.6702 14.6989 13.2122 14.7399C12.7542 14.7819 12.3252 14.9469 10.2172 14.1159C7.68016 13.1159 6.07816 10.5149 5.95416 10.3489C5.82916 10.1819 4.93516 8.99592 4.93516 7.76792C4.93516 6.53992 5.58016 5.93592 5.80916 5.68692C6.03816 5.43692 6.30816 5.37492 6.47516 5.37492C6.64116 5.37492 6.80816 5.37492 6.95316 5.38092C7.13116 5.38792 7.32816 5.39692 7.51516 5.81192C7.73716 6.30592 8.22216 7.53992 8.28416 7.66492C8.34616 7.78992 8.38816 7.93592 8.30516 8.10192C8.22216 8.26792 8.18016 8.37192 8.05616 8.51792C7.93116 8.66392 7.79416 8.84292 7.68216 8.95492C7.55716 9.07892 7.42716 9.21492 7.57216 9.46392C7.71816 9.71392 8.21816 10.5309 8.96016 11.1919C9.91416 12.0419 10.7172 12.3049 10.9672 12.4309C11.2172 12.5559 11.3622 12.5349 11.5082 12.3679C11.6542 12.2019 12.1322 11.6399 12.2982 11.3899C12.4642 11.1399 12.6312 11.1819 12.8602 11.2649C13.0892 11.3479 14.3162 11.9519 14.5652 12.0769C14.8152 12.2019 14.9812 12.2639 15.0432 12.3679C15.1052 12.4709 15.1052 12.9709 14.8972 13.5539Z" fill="white"/>
</svg>